<svg xmlns="http://www.w3.org/2000/svg" xmlns:xlink="http://www.w3.org/1999/xlink" width="1080" zoomAndPan="magnify" viewBox="0 0 810 809.999993" height="1080" preserveAspectRatio="xMidYMid meet" version="1.0"><defs><clipPath id="389e91e1e4"><path d="M 273 404 L 460 404 L 460 495.417969 L 273 495.417969 Z M 273 404 " clip-rule="nonzero"/></clipPath><clipPath id="f4d1ea168f"><path d="M 350 404 L 537 404 L 537 495.417969 L 350 495.417969 Z M 350 404 " clip-rule="nonzero"/></clipPath></defs><path fill="#9c7d3c" d="M 284.246094 435.535156 C 281.648438 419.761719 267.28125 399.414062 233.597656 398.753906 C 233.835938 414.851562 249.28125 434.007812 284.246094 435.535156 Z M 284.246094 435.535156 " fill-opacity="1" fill-rule="nonzero"/><path fill="#9c7d3c" d="M 57.027344 356.566406 C 55.242188 332.640625 20.519531 316.816406 12.132812 317.214844 C 10.164062 314.757812 14.050781 356.664062 57.027344 356.566406 Z M 57.027344 356.566406 " fill-opacity="1" fill-rule="nonzero"/><path fill="#9c7d3c" d="M 224.261719 421.449219 C 223.441406 406.640625 212.039062 384.097656 180.085938 379.585938 C 178.601562 393.84375 189.929688 415.902344 224.261719 421.449219 Z M 224.261719 421.449219 " fill-opacity="1" fill-rule="nonzero"/><path fill="#9c7d3c" d="M 170.554688 406.253906 C 171.074219 391.488281 160.589844 370.609375 134.242188 364.160156 C 131.394531 377.921875 140.96875 398.519531 170.554688 406.253906 Z M 170.554688 406.253906 " fill-opacity="1" fill-rule="nonzero"/><path fill="#9c7d3c" d="M 126.648438 388.242188 C 127.726562 375.683594 120.925781 355.128906 94.539062 347.222656 C 90.808594 360.539062 99.667969 380.34375 126.648438 388.242188 Z M 126.648438 388.242188 " fill-opacity="1" fill-rule="nonzero"/><path fill="#9c7d3c" d="M 85.539062 370.175781 C 87.5625 357.964844 81.894531 340.558594 60.660156 332.175781 C 56.464844 342.925781 61.582031 360.917969 85.539062 370.175781 Z M 85.539062 370.175781 " fill-opacity="1" fill-rule="nonzero"/><path fill="#9c7d3c" d="M 283.140625 441.507812 C 248.796875 430.007812 226.890625 442.164062 220.054688 454.347656 C 247.789062 468.550781 273.511719 458.8125 283.140625 441.507812 Z M 283.140625 441.507812 " fill-opacity="1" fill-rule="nonzero"/><path fill="#9c7d3c" d="M 160.449219 437.894531 C 192.792969 453.902344 215.695312 438.261719 223.191406 425.34375 C 190.683594 414.832031 168.023438 425.183594 160.449219 437.894531 Z M 160.449219 437.894531 " fill-opacity="1" fill-rule="nonzero"/><path fill="#9c7d3c" d="M 169.027344 411.28125 C 139.25 398.570312 119.019531 406.957031 111.609375 417.058594 C 136.316406 432.171875 158.851562 425.808594 169.027344 411.28125 Z M 169.027344 411.28125 " fill-opacity="1" fill-rule="nonzero"/><path fill="#9c7d3c" d="M 123.738281 392.351562 C 96.261719 380.929688 75.925781 388.121094 68.492188 397.621094 C 91.835938 412.300781 113.871094 406.003906 123.738281 392.351562 Z M 123.738281 392.351562 " fill-opacity="1" fill-rule="nonzero"/><path fill="#9c7d3c" d="M 82.621094 374.707031 C 59.675781 360.289062 42.023438 364.160156 34.308594 371.257812 C 52.363281 387.644531 72.417969 385.253906 82.621094 374.707031 Z M 82.621094 374.707031 " fill-opacity="1" fill-rule="nonzero"/><g clip-path="url(#389e91e1e4)"><path fill="#9c7d3c" d="M 334.75 444.632812 C 331.558594 426.523438 316.683594 407.160156 285.792969 404.609375 C 285.660156 416.875 295.894531 438.21875 328.402344 444.425781 L 329.613281 444.609375 C 295.882812 441.050781 277.375 461.28125 273.511719 471.082031 C 303.164062 480.363281 326.300781 468.742188 334.089844 449.953125 C 359.382812 449.953125 428.308594 457.742188 453.523438 495.289062 L 459.300781 488.539062 C 459.300781 488.539062 437.007812 445.757812 334.75 444.632812 Z M 334.75 444.632812 " fill-opacity="1" fill-rule="nonzero"/></g><path fill="#9c7d3c" d="M 525.882812 435.535156 C 528.476562 419.761719 542.84375 399.414062 576.527344 398.753906 C 576.289062 414.851562 560.84375 434.007812 525.882812 435.535156 Z M 525.882812 435.535156 " fill-opacity="1" fill-rule="nonzero"/><path fill="#9c7d3c" d="M 753.101562 356.566406 C 754.886719 332.640625 789.609375 316.816406 798.003906 317.214844 C 799.960938 314.757812 796.078125 356.664062 753.101562 356.566406 Z M 753.101562 356.566406 " fill-opacity="1" fill-rule="nonzero"/><path fill="#9c7d3c" d="M 585.863281 421.449219 C 586.6875 406.640625 598.097656 384.097656 630.042969 379.585938 C 631.566406 393.84375 620.199219 415.902344 585.863281 421.449219 Z M 585.863281 421.449219 " fill-opacity="1" fill-rule="nonzero"/><path fill="#9c7d3c" d="M 639.582031 406.253906 C 639.054688 391.488281 649.546875 370.609375 675.898438 364.160156 C 678.742188 377.921875 669.15625 398.519531 639.582031 406.253906 Z M 639.582031 406.253906 " fill-opacity="1" fill-rule="nonzero"/><path fill="#9c7d3c" d="M 683.492188 388.242188 C 682.410156 375.683594 689.210938 355.128906 715.597656 347.222656 C 719.316406 360.539062 710.457031 380.34375 683.492188 388.242188 Z M 683.492188 388.242188 " fill-opacity="1" fill-rule="nonzero"/><path fill="#9c7d3c" d="M 724.597656 370.175781 C 722.5625 357.964844 728.230469 340.558594 749.476562 332.175781 C 753.671875 342.925781 748.558594 360.917969 724.597656 370.175781 Z M 724.597656 370.175781 " fill-opacity="1" fill-rule="nonzero"/><path fill="#9c7d3c" d="M 526.984375 441.507812 C 561.332031 430.007812 583.234375 442.164062 590.070312 454.347656 C 562.335938 468.550781 536.667969 458.8125 526.984375 441.507812 Z M 526.984375 441.507812 " fill-opacity="1" fill-rule="nonzero"/><path fill="#9c7d3c" d="M 649.675781 437.894531 C 617.332031 453.902344 594.429688 438.261719 586.933594 425.34375 C 619.441406 414.832031 642.101562 425.183594 649.675781 437.894531 Z M 649.675781 437.894531 " fill-opacity="1" fill-rule="nonzero"/><path fill="#9c7d3c" d="M 641.109375 411.28125 C 670.878906 398.570312 691.105469 406.957031 698.515625 417.058594 C 673.808594 432.171875 651.296875 425.808594 641.109375 411.28125 Z M 641.109375 411.28125 " fill-opacity="1" fill-rule="nonzero"/><path fill="#9c7d3c" d="M 686.398438 392.351562 C 713.867188 380.949219 734.203125 388.121094 741.632812 397.621094 C 718.289062 412.300781 696.265625 406.003906 686.398438 392.351562 Z M 686.398438 392.351562 " fill-opacity="1" fill-rule="nonzero"/><path fill="#9c7d3c" d="M 727.507812 374.707031 C 750.449219 360.289062 768.09375 364.160156 775.828125 371.257812 C 757.761719 387.644531 737.707031 385.253906 727.507812 374.707031 Z M 727.507812 374.707031 " fill-opacity="1" fill-rule="nonzero"/><g clip-path="url(#f4d1ea168f)"><path fill="#9c7d3c" d="M 475.375 444.632812 C 478.566406 426.523438 493.441406 407.160156 524.335938 404.609375 C 524.464844 416.875 514.230469 438.21875 481.726562 444.425781 L 480.523438 444.609375 C 514.253906 441.050781 532.75 461.28125 536.625 471.082031 C 506.960938 480.363281 483.824219 468.742188 476.046875 449.953125 C 450.746094 449.953125 381.816406 457.742188 356.613281 495.289062 L 350.824219 488.539062 C 350.824219 488.539062 373.121094 445.757812 475.375 444.632812 Z M 475.375 444.632812 " fill-opacity="1" fill-rule="nonzero"/></g></svg>